# Made in Blockbench 4.1.5
mtllib ArenaFrame.mtl

o plane
v 0.5 0 0.28125
v 0.5 0 -0.28125
v -0.5 0 0.28125
v -0.5 0 -0.28125
v 0.50625 0.125 0.2875
v 0.50625 0.125 -0.2875
v -0.50625 0.125 -0.2875
v -0.50625 0.125 0.2875
v 0.50625 0.125 0
v -0.50625 0.125 0
v -0.50625 0.125 -0.14375
v 0.50625 0.125 -0.14375
v 0.5 0 -0.140625
v -0.5 0 -0.140625
v 0.50625 0.125 0.14375
v -0.50625 0.125 0.14375
v -0.5 0 0.140625
v 0.5 0 0.140625
v 0.49999999999999994 0.0625 -0.28124999999999994
v -0.49999999999999994 0.0625 -0.28124999999999994
v -0.49999999999999994 0.0625 -0.1407549564796905
v -0.49999999999999994 0.0625 0
v -0.49999999999999994 0.0625 0.1407549564796905
v -0.49999999999999994 0.0625 0.28124999999999994
v 0.49999999999999994 0.0625 0.28124999999999994
v 0.49999999999999994 0.0625 0.1407549564796905
v 0.49999999999999994 0.0625 0
v 0.49999999999999994 0.0625 -0.1407549564796905
v -0.625 5.551115123125783e-17 -0.140625
v -0.625 0.06250000000000006 0
v -0.625 0.06250000000000006 -0.1407549564796905
v -0.625 0.06250000000000006 0.1407549564796905
v -0.625 5.551115123125783e-17 0.140625
v 0.625 5.551115123125783e-17 0.140625
v 0.625 0.06250000000000006 0.1407549564796905
v 0.625 0.06250000000000006 0
v 0.625 0.06250000000000006 -0.1407549564796905
v 0.625 5.551115123125783e-17 -0.140625
v -0.63125 0.125 -0.2875
v -0.63125 0.125 -0.14375
v -0.63125 0.125 0
v -0.63125 0.125 0.14375
v -0.63125 0.125 0.2875
v 0.63125 0.125 0.2875
v 0.63125 0.125 0.14375
v 0.63125 0.125 0
v 0.63125 0.125 -0.14375
v 0.63125 0.125 -0.2875
vt 0.2916666666666667 0.53125
vt 0.15 0.53125
vt 0.15 0.4375
vt 0.2916666666666667 0.4375
vt 0.8333333333333334 0.9140625
vt 0 0.9140625
vt 0 0.8125
vt 0.8333333333333334 0.8125
vt 0.5833333333333334 0.53125
vt 0.44166666666666665 0.53125
vt 0.44166666666666665 0.4375
vt 0.5833333333333334 0.4375
vt 0.8333333333333339 0.7265625
vt 0 0.7265625
vt 0 0.625
vt 0.8333333333333345 0.6279125
vt 0.14583333333333334 0.34375
vt 0.00416666666666667 0.34375
vt 0.14583333333333334 0.25
vt 0.4375 0.34375
vt 0.29583333333333334 0.34375
vt 0.4375 0.25
vt 0 0.9140625
vt 0.8333333333333334 0.9140625
vt 0.8333333333333334 1
vt 0 1
vt 0.44166666666666665 0.53125
vt 0.5833333333333334 0.53125
vt 0.5833333333333334 0.625
vt 0.44166666666666665 0.625
vt 0.2916666666666667 0.15625
vt 0.4583333333333333 0.15625
vt 0.4583333333333333 0.25
vt 0.2916666666666667 0.25
vt 0.2916666666666667 0.15625
vt 0.4583333333333333 0.15625
vt 0.4583333333333333 0.25
vt 0.2916666666666667 0.25
vt 0.2916666666666667 0.53125
vt 0.15 0.53125
vt 0.15 0.625
vt 0.2916666666666667 0.62421875
vt 0 0.7265625
vt 0.8333333333333339 0.7265625
vt 0.8333333333333334 0.8125
vt 0 0.8125
vt 0.29583333333333334 0.34375
vt 0.4375 0.34375
vt 0.4375 0.4375
vt 0.29583333333333334 0.4375
vt 0 0.15625
vt 0.16666666666666666 0.15625
vt 0.16666666666666666 0.25
vt 0 0.25
vt 0 0.15625
vt 0.16666666666666666 0.15625
vt 0.16666666666666666 0.25
vt 0 0.25
vt 0.15625 0.34375
vt 0.00416666666666667 0.34375
vt 0.00416666666666667 0.4375
vt 0.16145833333333334 0.4375
vt 0.9166666666666666 0.5
vt 0.75 0.5
vt 0.75 0.625
vt 0.9166666666666666 0.625
vt 0.5833333333333334 0.25
vt 0.75 0.25
vt 0.75 0.125
vt 0.5833333333333334 0.125
vt 0.9166666666666666 0.125
vt 0.75 0.125
vt 0.75 0.25
vt 0.9166666666666666 0.25
vt 0.5833333333333334 0.625
vt 0.75 0.625
vt 0.75 0.5
vt 0.5833333333333334 0.5
vt 0.5833333333333334 0.375
vt 0.75 0.375
vt 0.75 0.25
vt 0.5833333333333334 0.25
vt 0.5833333333333334 0.5
vt 0.75 0.5
vt 0.75 0.375
vt 0.5833333333333334 0.375
vt 0.9166666666666666 0.375
vt 0.75 0.375
vt 0.75 0.5
vt 0.9166666666666666 0.5
vt 0.9166666666666666 0.25
vt 0.75 0.25
vt 0.75 0.375
vt 0.9166666666666666 0.375
vt 0.5833333333333334 0.625
vt 0.75 0.625
vt 0.75 0.375
vt 0.5833333333333334 0.375
vt 0.5833333333333334 0.5
vt 0.75 0.5
vt 0.75 0.25
vt 0.5833333333333334 0.25
vt 0.5833333333333334 0.5
vt 0.75 0.5
vt 0.75 0.25
vt 0.5833333333333334 0.25
vt 0.5833333333333334 0.375
vt 0.75 0.375
vt 0.75 0.125
vt 0.5833333333333334 0.125
vt 0.9166666666666666 0.125
vt 0.75 0.125
vt 0.75 0.375
vt 0.9166666666666666 0.375
vt 0.9166666666666666 0.25
vt 0.75 0.25
vt 0.75 0.5
vt 0.9166666666666666 0.5
vt 0.9166666666666666 0.25
vt 0.75 0.25
vt 0.75 0.5
vt 0.9166666666666666 0.5
vt 0.9166666666666666 0.375
vt 0.75 0.375
vt 0.75 0.625
vt 0.9166666666666666 0.625
vt 0.29583333333333334 0.34375
vt 0.29583333333333334 0.25
vt 0.4375 0.25
vt 0.00416666666666667 0.34375
vt 0.00416666666666667 0.25
vt 0.14583333333333334 0.25
vn -1 -8.881784197001252e-16 0
vn 0 -8.881784197001252e-16 1
vn 1 -8.881784197001252e-16 0
vn 0 -8.881784197001252e-16 -1
vn -1 -8.881784197001252e-16 0
vn 1 -8.881784197001252e-16 0
vn 0 0.09950371902099944 0.9950371902099892
vn 0.9950371902099892 0.09950371902099944 0
vn 0.9950371902099893 0.09950371902099946 0
vn 0.9950371902099893 0.09950371902099946 0
vn 0.9950371902099892 0.09950371902099944 0
vn 0 0.09950371902099944 -0.9950371902099892
vn -0.9950371902099892 0.09950371902099944 0
vn -0.9950371902099893 0.09950371902099946 0
vn -0.9950371902099893 0.09950371902099946 0
vn -0.9950371902099892 0.09950371902099944 0
vn -9.23394329943093e-19 0.002079299180123872 -0.9999978382551233
vn 9.23394329943093e-19 0.002079299180123872 0.9999978382551233
vn -9.233943299430934e-19 0.002079299180123872 0.9999978382551233
vn 9.233943299430934e-19 0.002079299180123872 -0.9999978382551233
vn -4.440892098500624e-16 -1 0
vn -4.440892098500624e-16 -1 0
vn 4.440892098500624e-16 -1 0
vn 4.440892098500624e-16 -1 0
vn 0 1 0
vn 0 1 0
vn 0 1 0
vn 0 1 0
vn 0 1 0
vn 0 1 0
vn 0 1 0
vn 0 1 0
vn 1 -8.881784197001252e-16 0
vn -1 -8.881784197001252e-16 0
usemtl m_0
f 25/1/1 26/2/1 18/3/1 1/4/1
f 19/5/2 20/6/2 4/7/2 2/8/2
f 20/9/3 21/10/3 14/11/3 4/12/3
f 24/13/4 25/14/4 1/15/4 3/16/4
f 28/17/5 19/18/5 13/19/5
f 23/20/6 24/21/6 17/22/6
f 20/23/7 19/24/7 6/25/7 7/26/7
f 21/27/8 20/28/8 7/29/8 11/30/8
f 22/31/9 21/32/9 11/33/9 10/34/9
f 23/35/10 22/36/10 10/37/10 16/38/10
f 24/39/11 23/40/11 16/41/11 8/42/11
f 25/43/12 24/44/12 8/45/12 5/46/12
f 26/47/13 25/48/13 5/49/13 15/50/13
f 27/51/14 26/52/14 15/53/14 9/54/14
f 28/55/15 27/56/15 9/57/15 12/58/15
f 19/59/16 28/60/16 12/61/16 6/62/16
f 26/63/17 35/64/17 34/65/17 18/66/17
f 21/67/18 31/68/18 29/69/18 14/70/18
f 13/71/19 38/72/19 37/73/19 28/74/19
f 17/75/20 33/76/20 32/77/20 23/78/20
f 22/79/21 30/80/21 31/81/21 21/82/21
f 23/83/22 32/84/22 30/85/22 22/86/22
f 27/87/23 36/88/23 35/89/23 26/90/23
f 28/91/24 37/92/24 36/93/24 27/94/24
f 7/95/25 39/96/25 40/97/25 11/98/25
f 11/99/26 40/100/26 41/101/26 10/102/26
f 10/103/27 41/104/27 42/105/27 16/106/27
f 16/107/28 42/108/28 43/109/28 8/110/28
f 5/111/29 44/112/29 45/113/29 15/114/29
f 15/115/30 45/116/30 46/117/30 9/118/30
f 9/119/31 46/120/31 47/121/31 12/122/31
f 12/123/32 47/124/32 48/125/32 6/126/32
f 24/127/33 3/128/33 17/129/33
f 19/130/34 2/131/34 13/132/34
o plane
v 0.5625 0 0.34375
v 0.5625 0 -0.35624999999999996
v -0.5625 0 0.34375
v -0.5625 0 -0.35624999999999996
vt 0 0.004999999999999671
vt 0 1
vt 1 1
vt 1 0.0050000000000000044
vn 0 1 0
usemtl m_1
f 49/133/35 50/134/35 52/135/35 51/136/35