# Made in Blockbench 4.1.3
mtllib BallModel.mtl

o sphere
v 0 -0.375 0
v 0 0.375 0
v 0 0.3247595264191645 0.18749999999999997
v 0 0.18750000000000006 0.3247595264191645
v 0 2.296212748401287e-17 0.375
v 0 -0.18749999999999992 0.3247595264191645
v 0 -0.3247595264191645 0.18749999999999997
v 0.09374999999999997 0.3247595264191645 0.16237976320958222
v 0.16237976320958222 0.18750000000000006 0.28125
v 0.18749999999999997 2.296212748401287e-17 0.3247595264191645
v 0.16237976320958222 -0.18749999999999992 0.28125
v 0.09374999999999997 -0.3247595264191645 0.16237976320958222
v 0.16237976320958222 0.3247595264191645 0.09375
v 0.28125 0.18750000000000006 0.16237976320958228
v 0.3247595264191645 2.296212748401287e-17 0.18750000000000006
v 0.28125 -0.18749999999999992 0.16237976320958228
v 0.16237976320958222 -0.3247595264191645 0.09375
v 0.18749999999999997 0.3247595264191645 1.1481063742006434e-17
v 0.3247595264191645 0.18750000000000006 1.9885785726092006e-17
v 0.375 2.296212748401287e-17 2.296212748401287e-17
v 0.3247595264191645 -0.18749999999999992 1.9885785726092006e-17
v 0.18749999999999997 -0.3247595264191645 1.1481063742006434e-17
v 0.16237976320958222 0.3247595264191645 -0.09374999999999994
v 0.28125 0.18750000000000006 -0.16237976320958217
v 0.3247595264191645 2.296212748401287e-17 -0.18749999999999992
v 0.28125 -0.18749999999999992 -0.16237976320958217
v 0.16237976320958222 -0.3247595264191645 -0.09374999999999994
v 0.09374999999999997 0.3247595264191645 -0.16237976320958222
v 0.16237976320958222 0.18750000000000006 -0.28125
v 0.18749999999999997 2.296212748401287e-17 -0.3247595264191645
v 0.16237976320958222 -0.18749999999999992 -0.28125
v 0.09374999999999997 -0.3247595264191645 -0.16237976320958222
v 2.2962127484012868e-17 0.3247595264191645 -0.18749999999999997
v 3.977157145218401e-17 0.18750000000000006 -0.3247595264191645
v 4.592425496802574e-17 2.296212748401287e-17 -0.375
v 3.977157145218401e-17 -0.18749999999999992 -0.3247595264191645
v 2.2962127484012868e-17 -0.3247595264191645 -0.18749999999999997
v -0.09375 0.3247595264191645 -0.16237976320958222
v -0.16237976320958228 0.18750000000000006 -0.28125
v -0.18750000000000006 2.296212748401287e-17 -0.3247595264191645
v -0.16237976320958228 -0.18749999999999992 -0.28125
v -0.09375 -0.3247595264191645 -0.16237976320958222
v -0.1623797632095822 0.3247595264191645 -0.09375000000000007
v -0.28124999999999994 0.18750000000000006 -0.1623797632095824
v -0.32475952641916445 2.296212748401287e-17 -0.18750000000000017
v -0.28124999999999994 -0.18749999999999992 -0.1623797632095824
v -0.1623797632095822 -0.3247595264191645 -0.09375000000000007
v -0.18749999999999997 0.3247595264191645 -3.4443191226019304e-17
v -0.3247595264191645 0.18750000000000006 -5.965735717827601e-17
v -0.375 2.296212748401287e-17 -6.888638245203862e-17
v -0.3247595264191645 -0.18749999999999992 -5.965735717827601e-17
v -0.18749999999999997 -0.3247595264191645 -3.4443191226019304e-17
v -0.16237976320958222 0.3247595264191645 0.09375
v -0.28125 0.18750000000000006 0.16237976320958228
v -0.3247595264191645 2.296212748401287e-17 0.18750000000000006
v -0.28125 -0.18749999999999992 0.16237976320958228
v -0.16237976320958222 -0.3247595264191645 0.09375
v -0.09375000000000007 0.3247595264191645 0.16237976320958217
v -0.1623797632095824 0.18750000000000006 0.28124999999999994
v -0.18750000000000017 2.296212748401287e-17 0.3247595264191644
v -0.1623797632095824 -0.18749999999999992 0.28124999999999994
v -0.09375000000000007 -0.3247595264191645 0.16237976320958217
vt 0.54853125 0.21852499999999997
vt 0.5 0.21852499999999997
vt 0.524265625 0.3125
vt 0.59754375 0.96875
vt 0.6153062499999999 0.875
vt 0.53125 0.875
vt 0.5490125 0.96875
vt 0.12180625 0.96875
vt 0.12830625 0.875
vt 0.03125 0.875
vt 0.03775 0.96875
vt 0.12830625 0.875
vt 0.12180625 0.78125
vt 0.03775 0.78125
vt 0.03125 0.875
vt 0.6153062499999999 0.875
vt 0.59754375 0.78125
vt 0.5490125 0.78125
vt 0.53125 0.875
vt 0.5625 0.3125
vt 0.61103125 0.3125
vt 0.586765625 0.21852499999999997
vt 0.73603125 0.31227499999999997
vt 0.6875 0.31227499999999997
vt 0.711765625 0.40625
vt 0.59754375 0.78125
vt 0.6153062499999999 0.6875
vt 0.53125 0.6875
vt 0.5490125 0.78125
vt 0.24680625 0.96875
vt 0.25330625 0.875
vt 0.15625 0.875
vt 0.16275 0.96875
vt 0.25330625 0.875
vt 0.24680625 0.78125
vt 0.16275 0.78125
vt 0.15625 0.875
vt 0.6153062499999999 0.6875
vt 0.59754375 0.59375
vt 0.5490125 0.59375
vt 0.53125 0.6875
vt 0.625 0.3125
vt 0.67353125 0.3125
vt 0.649265625 0.21852499999999997
vt 0.76728125 0.874775
vt 0.71875 0.874775
vt 0.743015625 0.96875
vt 0.59754375 0.59375
vt 0.6153062499999999 0.5
vt 0.53125 0.5
vt 0.5490125 0.59375
vt 0.12180625 0.78125
vt 0.12830625 0.6875
vt 0.03125 0.6875
vt 0.03775 0.78125
vt 0.25330625 0.78125
vt 0.24680625 0.6875
vt 0.16275 0.6875
vt 0.15625 0.78125
vt 0.6153062499999999 0.5
vt 0.59754375 0.40625
vt 0.5490125 0.40625
vt 0.53125 0.5
vt 0.71875 0.84375
vt 0.76728125 0.84375
vt 0.743015625 0.749775
vt 0.76728125 0.624775
vt 0.71875 0.624775
vt 0.743015625 0.71875
vt 0.09754375 0.40625
vt 0.11530625 0.3125
vt 0.03125 0.3125
vt 0.0490125 0.40625
vt 0.37180625 0.96875
vt 0.37830625 0.875
vt 0.28125 0.875
vt 0.28775 0.96875
vt 0.37830625 0.875
vt 0.37180625 0.78125
vt 0.28775 0.78125
vt 0.28125 0.875
vt 0.20905625 0.40625
vt 0.19129374999999998 0.3125
vt 0.14276250000000001 0.3125
vt 0.125 0.40625
vt 0.71875 0.59375
vt 0.76728125 0.59375
vt 0.743015625 0.49977499999999997
vt 0.73603125 0.18727499999999997
vt 0.6875 0.18727499999999997
vt 0.711765625 0.28125
vt 0.28504375 0.40625
vt 0.30280625 0.3125
vt 0.21875 0.3125
vt 0.23651250000000001 0.40625
vt 0.37180625 0.78125
vt 0.37830625 0.6875
vt 0.28125 0.6875
vt 0.28775 0.78125
vt 0.12830625 0.6875
vt 0.12180625 0.59375
vt 0.03775 0.59375
vt 0.03125 0.6875
vt 0.39655625 0.40625
vt 0.37879375 0.3125
vt 0.3302625 0.3125
vt 0.3125 0.40625
vt 0.75 0.46875
vt 0.79853125 0.46875
vt 0.774265625 0.37477499999999997
vt 0.79853125 0.24977499999999997
vt 0.75 0.24977499999999997
vt 0.774265625 0.34375
vt 0.47254375 0.40625
vt 0.49030625 0.3125
vt 0.40625 0.3125
vt 0.4240125 0.40625
vt 0.24680625 0.6875
vt 0.25330625 0.59375
vt 0.15625 0.59375
vt 0.16275 0.6875
vt 0.37830625 0.6875
vt 0.37180625 0.59375
vt 0.28775 0.59375
vt 0.28125 0.6875
vt 0.5840562499999999 0.40625
vt 0.56629375 0.3125
vt 0.5177625 0.3125
vt 0.5 0.40625
vt 0.03125 0.21875
vt 0.07978125 0.21875
vt 0.055515625 0.12477499999999997
vt 0.82978125 0.874775
vt 0.78125 0.874775
vt 0.805515625 0.96875
vt 0.66004375 0.40625
vt 0.6778062499999999 0.3125
vt 0.59375 0.3125
vt 0.6115125 0.40625
vt 0.12180625 0.59375
vt 0.12830625 0.5
vt 0.03125 0.5
vt 0.03775 0.59375
vt 0.5033062500000001 0.96875
vt 0.49680625 0.875
vt 0.41275 0.875
vt 0.40625 0.96875
vt 0.7090562499999999 0.96875
vt 0.69129375 0.875
vt 0.6427625 0.875
vt 0.625 0.96875
vt 0.09375 0.21875
vt 0.14228125 0.21875
vt 0.118015625 0.12477499999999997
vt 0.20478125 0.12477499999999997
vt 0.15625 0.12477499999999997
vt 0.180515625 0.21875
vt 0.69129375 0.875
vt 0.7090562499999999 0.78125
vt 0.625 0.78125
vt 0.6427625 0.875
vt 0.49680625 0.875
vt 0.5033062500000001 0.78125
vt 0.40625 0.78125
vt 0.41275 0.875
vt 0.25330625 0.59375
vt 0.24680625 0.5
vt 0.16275 0.5
vt 0.15625 0.59375
vt 0.7090562499999999 0.78125
vt 0.69129375 0.6875
vt 0.6427625 0.6875
vt 0.625 0.78125
vt 0.78125 0.84375
vt 0.82978125 0.84375
vt 0.805515625 0.749775
vt 0.26728125 0.12477499999999997
vt 0.21875 0.12477499999999997
vt 0.243015625 0.21875
vt 0.69129375 0.6875
vt 0.7090562499999999 0.59375
vt 0.625 0.59375
vt 0.6427625 0.6875
vt 0.49680625 0.78125
vt 0.5033062500000001 0.6875
vt 0.40625 0.6875
vt 0.41275 0.78125
vt 0.37830625 0.59375
vt 0.37180625 0.5
vt 0.28775 0.5
vt 0.28125 0.59375
vt 0.7090562499999999 0.59375
vt 0.69129375 0.5
vt 0.6427625 0.5
vt 0.625 0.59375
vt 0.28125 0.21875
vt 0.32978125 0.21875
vt 0.305515625 0.12477499999999997
vt 0.82978125 0.624775
vt 0.78125 0.624775
vt 0.805515625 0.71875
vt 0.69129375 0.5
vt 0.7090562499999999 0.40625
vt 0.625 0.40625
vt 0.6427625 0.5
vt 0.49680625 0.6875
vt 0.5033062500000001 0.59375
vt 0.40625 0.59375
vt 0.41275 0.6875
vt 0.5033062500000001 0.59375
vt 0.49680625 0.5
vt 0.41275 0.5
vt 0.40625 0.59375
vt 0.11530625 0.3125
vt 0.09754375 0.21875
vt 0.0490125 0.21875
vt 0.03125 0.3125
vt 0.34375 0.21875
vt 0.39228125 0.21875
vt 0.368015625 0.12477499999999997
vt 0.45478125 0.12477499999999997
vt 0.40625 0.12477499999999997
vt 0.430515625 0.21875
vt 0.19129374999999998 0.3125
vt 0.20905625 0.21875
vt 0.125 0.21875
vt 0.14276250000000001 0.3125
vt 0.12180625 0.5
vt 0.12830625 0.40625
vt 0.03125 0.40625
vt 0.03775 0.5
vt 0.25330625 0.5
vt 0.24680625 0.40625
vt 0.16275 0.40625
vt 0.15625 0.5
vt 0.30280625 0.3125
vt 0.28504375 0.21875
vt 0.23651250000000001 0.21875
vt 0.21875 0.3125
vt 0.78125 0.59375
vt 0.82978125 0.59375
vt 0.805515625 0.49977499999999997
vt 0.79853125 0.12477499999999997
vt 0.75 0.12477499999999997
vt 0.774265625 0.21875
vt 0.37879375 0.3125
vt 0.39655625 0.21875
vt 0.3125 0.21875
vt 0.3302625 0.3125
vt 0.37180625 0.5
vt 0.37830625 0.40625
vt 0.28125 0.40625
vt 0.28775 0.5
vt 0.5033062500000001 0.5
vt 0.49680625 0.40625
vt 0.41275 0.40625
vt 0.40625 0.5
vt 0.49030625 0.3125
vt 0.47254375 0.21875
vt 0.4240125 0.21875
vt 0.40625 0.3125
vt 0.46875 0.1875
vt 0.51728125 0.1875
vt 0.493015625 0.09352499999999997
vn 0.06918418399436432 0.9636113749942804 0.25819888974716115
vn 0.18615678789738557 0.6947465906068659 0.6947465906068655
vn 0.2505628070857316 0.25056280708573153 0.9351131265310294
vn 0.25056280708573164 -0.25056280708573164 0.9351131265310294
vn 0.1861567878973856 -0.6947465906068656 0.6947465906068659
vn 0.06918418399436432 -0.9636113749942804 0.25819888974716115
vn 0.1890147057527968 0.9636113749942804 0.18901470575279689
vn 0.50858980270948 0.6947465906068659 0.5085898027094802
vn 0.6845503194452975 0.2505628070857316 0.684550319445298
vn 0.6845503194452975 -0.2505628070857317 0.684550319445298
vn 0.5085898027094802 -0.6947465906068656 0.5085898027094805
vn 0.18901470575279686 -0.9636113749942804 0.1890147057527969
vn 0.2581988897471612 0.9636113749942804 0.06918418399436432
vn 0.6947465906068656 0.694746590606866 0.18615678789738546
vn 0.9351131265310294 0.25056280708573164 0.25056280708573153
vn 0.9351131265310293 -0.25056280708573175 0.25056280708573164
vn 0.6947465906068659 -0.6947465906068656 0.18615678789738546
vn 0.25819888974716115 -0.9636113749942804 0.06918418399436431
vn 0.2581988897471612 0.9636113749942804 -0.06918418399436434
vn 0.6947465906068656 0.694746590606866 -0.18615678789738563
vn 0.9351131265310294 0.25056280708573153 -0.25056280708573164
vn 0.9351131265310294 -0.25056280708573164 -0.2505628070857317
vn 0.6947465906068658 -0.6947465906068656 -0.18615678789738566
vn 0.2581988897471612 -0.9636113749942804 -0.06918418399436434
vn 0.18901470575279689 0.9636113749942803 -0.1890147057527968
vn 0.5085898027094803 0.6947465906068659 -0.5085898027094801
vn 0.684550319445298 0.2505628070857316 -0.6845503194452977
vn 0.6845503194452979 -0.2505628070857317 -0.6845503194452977
vn 0.5085898027094805 -0.6947465906068655 -0.5085898027094804
vn 0.18901470575279689 -0.9636113749942803 -0.1890147057527968
vn 0.06918418399436435 0.9636113749942804 -0.2581988897471612
vn 0.18615678789738554 0.6947465906068659 -0.6947465906068656
vn 0.25056280708573164 0.2505628070857316 -0.9351131265310294
vn 0.25056280708573175 -0.25056280708573175 -0.9351131265310294
vn 0.18615678789738554 -0.6947465906068656 -0.6947465906068659
vn 0.06918418399436435 -0.9636113749942804 -0.2581988897471612
vn -0.06918418399436427 0.9636113749942803 -0.25819888974716115
vn -0.1861567878973855 0.6947465906068659 -0.6947465906068656
vn -0.2505628070857315 0.25056280708573153 -0.9351131265310294
vn -0.2505628070857315 -0.25056280708573164 -0.9351131265310294
vn -0.18615678789738552 -0.6947465906068656 -0.6947465906068659
vn -0.06918418399436428 -0.9636113749942803 -0.2581988897471612
vn -0.18901470575279677 0.9636113749942804 -0.18901470575279689
vn -0.50858980270948 0.6947465906068662 -0.5085898027094803
vn -0.6845503194452977 0.25056280708573164 -0.6845503194452979
vn -0.6845503194452975 -0.2505628070857318 -0.684550319445298
vn -0.5085898027094803 -0.6947465906068657 -0.5085898027094805
vn -0.18901470575279677 -0.9636113749942804 -0.18901470575279689
vn -0.2581988897471611 0.9636113749942803 -0.06918418399436434
vn -0.6947465906068656 0.694746590606866 -0.1861567878973856
vn -0.9351131265310295 0.25056280708573164 -0.2505628070857317
vn -0.9351131265310293 -0.2505628070857318 -0.25056280708573186
vn -0.6947465906068659 -0.6947465906068656 -0.18615678789738566
vn -0.25819888974716115 -0.9636113749942803 -0.06918418399436435
vn -0.25819888974716115 0.9636113749942803 0.06918418399436427
vn -0.6947465906068656 0.694746590606866 0.18615678789738546
vn -0.9351131265310294 0.25056280708573153 0.2505628070857314
vn -0.9351131265310294 -0.25056280708573164 0.2505628070857315
vn -0.6947465906068659 -0.6947465906068657 0.18615678789738552
vn -0.2581988897471612 -0.9636113749942803 0.06918418399436428
vn -0.18901470575279686 0.9636113749942804 0.1890147057527968
vn -0.5085898027094803 0.6947465906068662 0.50858980270948
vn -0.6845503194452978 0.25056280708573164 0.6845503194452978
vn -0.684550319445298 -0.2505628070857318 0.6845503194452975
vn -0.5085898027094804 -0.6947465906068657 0.5085898027094804
vn -0.18901470575279689 -0.9636113749942804 0.18901470575279683
vn -0.0691841839943644 0.9636113749942803 0.25819888974716115
vn -0.18615678789738563 0.6947465906068659 0.6947465906068655
vn -0.2505628070857319 0.2505628070857314 0.9351131265310295
vn -0.2505628070857318 -0.25056280708573153 0.9351131265310295
vn -0.18615678789738574 -0.6947465906068657 0.6947465906068657
vn -0.0691841839943644 -0.9636113749942803 0.25819888974716115
usemtl m_0
f 3/1/1 8/2/1 2/3/1
f 3/4/2 4/5/2 9/6/2 8/7/2
f 4/8/3 5/9/3 10/10/3 9/11/3
f 5/12/4 6/13/4 11/14/4 10/15/4
f 6/16/5 7/17/5 12/18/5 11/19/5
f 12/20/6 7/21/6 1/22/6
f 8/23/7 13/24/7 2/25/7
f 8/26/8 9/27/8 14/28/8 13/29/8
f 9/30/9 10/31/9 15/32/9 14/33/9
f 10/34/10 11/35/10 16/36/10 15/37/10
f 11/38/11 12/39/11 17/40/11 16/41/11
f 17/42/12 12/43/12 1/44/12
f 13/45/13 18/46/13 2/47/13
f 13/48/14 14/49/14 19/50/14 18/51/14
f 14/52/15 15/53/15 20/54/15 19/55/15
f 15/56/16 16/57/16 21/58/16 20/59/16
f 16/60/17 17/61/17 22/62/17 21/63/17
f 22/64/18 17/65/18 1/66/18
f 18/67/19 23/68/19 2/69/19
f 18/70/20 19/71/20 24/72/20 23/73/20
f 19/74/21 20/75/21 25/76/21 24/77/21
f 20/78/22 21/79/22 26/80/22 25/81/22
f 21/82/23 22/83/23 27/84/23 26/85/23
f 27/86/24 22/87/24 1/88/24
f 23/89/25 28/90/25 2/91/25
f 23/92/26 24/93/26 29/94/26 28/95/26
f 24/96/27 25/97/27 30/98/27 29/99/27
f 25/100/28 26/101/28 31/102/28 30/103/28
f 26/104/29 27/105/29 32/106/29 31/107/29
f 32/108/30 27/109/30 1/110/30
f 28/111/31 33/112/31 2/113/31
f 28/114/32 29/115/32 34/116/32 33/117/32
f 29/118/33 30/119/33 35/120/33 34/121/33
f 30/122/34 31/123/34 36/124/34 35/125/34
f 31/126/35 32/127/35 37/128/35 36/129/35
f 37/130/36 32/131/36 1/132/36
f 33/133/37 38/134/37 2/135/37
f 33/136/38 34/137/38 39/138/38 38/139/38
f 34/140/39 35/141/39 40/142/39 39/143/39
f 35/144/40 36/145/40 41/146/40 40/147/40
f 36/148/41 37/149/41 42/150/41 41/151/41
f 42/152/42 37/153/42 1/154/42
f 38/155/43 43/156/43 2/157/43
f 38/158/44 39/159/44 44/160/44 43/161/44
f 39/162/45 40/163/45 45/164/45 44/165/45
f 40/166/46 41/167/46 46/168/46 45/169/46
f 41/170/47 42/171/47 47/172/47 46/173/47
f 47/174/48 42/175/48 1/176/48
f 43/177/49 48/178/49 2/179/49
f 43/180/50 44/181/50 49/182/50 48/183/50
f 44/184/51 45/185/51 50/186/51 49/187/51
f 45/188/52 46/189/52 51/190/52 50/191/52
f 46/192/53 47/193/53 52/194/53 51/195/53
f 52/196/54 47/197/54 1/198/54
f 48/199/55 53/200/55 2/201/55
f 48/202/56 49/203/56 54/204/56 53/205/56
f 49/206/57 50/207/57 55/208/57 54/209/57
f 50/210/58 51/211/58 56/212/58 55/213/58
f 51/214/59 52/215/59 57/216/59 56/217/59
f 57/218/60 52/219/60 1/220/60
f 53/221/61 58/222/61 2/223/61
f 53/224/62 54/225/62 59/226/62 58/227/62
f 54/228/63 55/229/63 60/230/63 59/231/63
f 55/232/64 56/233/64 61/234/64 60/235/64
f 56/236/65 57/237/65 62/238/65 61/239/65
f 62/240/66 57/241/66 1/242/66
f 58/243/67 3/244/67 2/245/67
f 58/246/68 59/247/68 4/248/68 3/249/68
f 59/250/69 60/251/69 5/252/69 4/253/69
f 60/254/70 61/255/70 6/256/70 5/257/70
f 61/258/71 62/259/71 7/260/71 6/261/71
f 7/262/72 62/263/72 1/264/72